<?xml version="1.0" encoding="utf-8"?>
<!-- Generator: Adobe Illustrator 21.0.2, SVG Export Plug-In . SVG Version: 6.00 Build 0)  -->
<svg version="1.1" id="图层_1" xmlns="http://www.w3.org/2000/svg" xmlns:xlink="http://www.w3.org/1999/xlink" x="0px" y="0px"
	 viewBox="0 0 400 400" style="enable-background:new 0 0 400 400;" xml:space="preserve">
<style type="text/css">
	.st0{fill-rule:evenodd;clip-rule:evenodd;}
</style>
<path class="st0" d="M271.2,88.1c0,0-54,76.9-54.5,78.5c-0.5,1.6-0.6,1.8,0,2.9s7.9,5.9,10.3,6.2c2.5,0.3,2.9-0.5,2.9-0.5L288.4,95
	c0,0,19.4-22.1,23.3-23c10.2-2.4,12.5-5.7,10.6-10.8c-4.5-11.7-51.3-12.3-55.1-3.5c-2.8,6.6,2.8,7.5,7.8,9.5c0,0,2.5,0.4,2.6,5
	c0.1,3.5-1,5.5-1,5.5L271.2,88.1z"/>
<path class="st0" d="M194.1,191.7c-2.1,2.4-98.9,141.4-106.6,146.9c-7.7,5.5-15.3,4.7-21.4,8.4c-6,3.7-4.4,9.4-0.7,11
	c3.7,1.7,50.2,2,56.9,1.2c6.7-0.8,13.5-2.8,10.8-8.9c-2.4-5.5-15.7-3.2-15.4-11c0.3-7.8,88.8-134.2,91.4-138
	c2.8-3.4-3.1-6.2-5.3-7.4C201.8,192.7,196.2,189.3,194.1,191.7z"/>
<path class="st0" d="M49.4,18.7c-3.4,2.6-5.5,5-4.3,11.8c1.2,6.7,43.4,61.7,43.4,61.7s71.1,74.2,76.8,84s6.1,26.8,11.3,34.8
	c6.1,10.1,30,17.8,35.8,21.6c10.1,6.6,37.2,65.7,55.2,85.9c49.4,55.5,74,84.3,86.6,69.4c8.1-9.6-31.2-62.5-54-93.4
	c-22.8-30.9-63.6-58-71-73.4c-7.4-15.4-5-30.6-13.7-39.8c-10.6-11.1-22.8-5-31.9-17.5c-13.3-18.2-35.4-55.7-58.3-85.9
	C102.5,47.8,69.2,23.1,64,19.4C61,17.3,53.3,15.6,49.4,18.7z"/>
</svg>
